<mxfile host="app.diagrams.net" modified="2023-12-08T02:56:46.528Z" agent="Mozilla/5.0 (Windows NT 10.0; Win64; x64) AppleWebKit/537.36 (KHTML, like Gecko) Chrome/119.0.0.0 Safari/537.36" version="22.1.7" etag="ojy6LK-SwWniCdqSu897" type="github">
  <diagram name="페이지-1" id="6S9EhtX5415pM4Jsq4k-">
    <mxGraphModel>
      <root>
        <mxCell id="0" />
        <mxCell id="1" parent="0" />
      </root>
    </mxGraphModel>
  </diagram>
</mxfile>
